<svg xmlns="http://www.w3.org/2000/svg" xmlns:xlink="http://www.w3.org/1999/xlink" viewBox="0 0 24 24"><defs><style>.a,.d,.g,.i,.j,.k,.l,.m,.n{fill:#fff;}.b{clip-path:url(#a);}.c{fill:#ce1126;}.d,.f,.g,.h,.i,.j,.k,.l,.m,.n,.o,.p{stroke:#c09300;}.d,.g,.h,.i,.j,.k{stroke-linejoin:round;}.d{stroke-width:0.037px;}.e,.f,.p{fill:#c09300;}.f{stroke-width:0.031px;}.g{stroke-width:0.034px;}.h,.o{fill:none;}.h,.j{stroke-width:0.037px;}.i,.j,.k{stroke-linecap:round;}.i{stroke-width:0.069px;}.k{stroke-width:0.026px;}.l{stroke-width:0.033px;}.m{stroke-width:0.026px;}.n{stroke-width:0.035px;}.o{stroke-width:0.037px;}.p{stroke-width:0.01px;}</style><clipPath id="a"><circle class="a" cx="12" cy="12" r="12" transform="translate(174 5)"/></clipPath></defs><g class="b" transform="translate(-174 -5)"><g transform="translate(165.231 3.33)"><rect width="41.538" height="27.692"/><rect class="a" width="41.538" height="18.462"/><rect class="c" width="41.538" height="9.231"/><g transform="translate(17.571 9.489)"><path class="d" d="M14.234,9.849l3.161,2.934L17.17,7.454c-.033-.808-.735-.622-1.245-.331a1.9,1.9,0,0,1-1.728.112,1.9,1.9,0,0,1-1.728-.112c-.51-.291-1.212-.477-1.245.331L11,12.783l3.235-2.934Z" transform="translate(-10.998 -5.381)"/><g transform="translate(0 1.887)"><path class="e" d="M11.587,7.121,11.369,12.3,11,12.636l.225-5.329a1.111,1.111,0,0,1,.364-.185Z" transform="translate(-10.998 -7.121)"/><path class="e" d="M11.853,7.462,11.667,11.8l-.371.379.225-5.007c.073.073.291.252.331.291Z" transform="translate(-10.82 -7.091)"/><path class="e" d="M12.064,7.642l-.146,3.617-.3.291.185-4.126c.073.073.218.179.258.218Z" transform="translate(-10.626 -6.94)"/><path class="e" d="M12.335,7.718,12.189,10.8l-.291.236.146-3.431a1.06,1.06,0,0,0,.291.113Z" transform="translate(-10.46 -6.831)"/><path class="e" d="M12.575,7.676l-.106,2.569-.3.291.113-2.827a.768.768,0,0,0,.291-.033Z" transform="translate(-10.297 -6.789)"/></g><g transform="translate(6.397 7.402) rotate(180)"><path class="e" d="M.589,5.515.371.331,0,0,.225,5.329a1.111,1.111,0,0,0,.364.185Z"/><path class="e" d="M.556,4.716.371.379,0,0,.225,5.007c.073-.073.291-.252.331-.291Z" transform="translate(0.477 0.428)"/><path class="e" d="M.444,3.908.3.291,0,0,.185,4.126c.073-.073.218-.179.258-.218Z" transform="translate(0.994 0.905)"/><path class="e" d="M.437,3.319.291.236,0,0,.146,3.431a1.06,1.06,0,0,1,.291-.113Z" transform="translate(1.437 1.309)"/><path class="e" d="M.4,2.86.3.291,0,0,.113,2.827A.768.768,0,0,1,.4,2.86Z" transform="translate(1.874 1.767)"/></g><path class="f" d="M13.366,9.1l.444,2.019-.146.146-.152-.113-.252-1.8.106,1.8-.146.185-.146-.185.106-1.8-.252,1.8-.152.113-.146-.146L13.075,9.1h.291Z" transform="translate(-10.022 -4.05)"/><g transform="translate(1.325 4.165)"><path class="g" d="M12.708,8.546l-.881,3.125,1.212.185.516-2.35-.848-.96Z" transform="translate(-11.827 -8.546)"/><path class="h" d="M12.2,9.322l.106.258.573-.547" transform="translate(-11.607 -8.256)"/><path class="h" d="M12.444,8.809l.12,1.124.364-.477" transform="translate(-11.458 -8.39)"/><path class="h" d="M12.656,9.33l.2.687" transform="translate(-11.332 -8.078)"/><path class="h" d="M13.309,9.625l-.4.611m.125.61-.129-.609-.112-.62-.27.365L12.4,9.562l-.377.387.192.7.265-.435.146.444.272-.423" transform="translate(-11.708 -7.94)"/><path class="h" d="M11.989,10.585l.245-.344.159.529.219-.371.146.444" transform="translate(-11.731 -7.533)"/></g><g transform="translate(5.072 7.475) rotate(180)"><path class="g" d="M.881,3.31,0,.185,1.212,0l.516,2.35-.848.96Z" transform="translate(0 0)"/><path class="h" d="M0,.258.106,0,.678.547" transform="translate(0.589 1.986)"/><path class="h" d="M0,1.124.12,0,.484.477" transform="translate(0.986 1.768)"/><path class="h" d="M0,.687.2,0" transform="translate(1.324 1.373)"/><path class="h" d="M1.283,1.221.881.61M1.006,0,.877.609l-.112.62L.5.864l-.118.421L0,.9l.192-.7L.457.629.6.185.874.608" transform="translate(0.318 0.404)"/><path class="h" d="M0,.258.245.6.4.073.622.444.768,0" transform="translate(0.258)"/></g><g transform="translate(0.404 7.101)"><path class="i" d="M14.045,11.87a9.753,9.753,0,0,0,2.318-.218c.219-.04.219-.152.219-.3.219-.073.106-.331.258-.331-.152.04-.185-.258-.371-.218,0-.258-.258-.291-.477-.219a7.336,7.336,0,0,1-1.947.179,9.1,9.1,0,0,1-1.947-.179c-.219-.073-.477-.04-.477.219-.185-.04-.219.258-.371.218.152,0,.04.258.258.331,0,.146,0,.258.225.3a9.654,9.654,0,0,0,2.311.218Z" transform="translate(-11.251 -10.284)"/><path class="j" d="M12.594,10.573a3.714,3.714,0,0,0,.887.04c.146,0,.252.252-.04.291a3.486,3.486,0,0,1-.881-.04c-.185-.033-.589-.106-.848-.179-.258-.112-.073-.331.073-.3a4.86,4.86,0,0,0,.808.185Z" transform="translate(-11.052 -10.384)"/><path class="j" d="M14.169,10.573a3.673,3.673,0,0,1-.881.04c-.152,0-.258.252.033.291a3.485,3.485,0,0,0,.881-.04c.185-.033.589-.106.848-.179.258-.112.073-.331-.073-.3a4.859,4.859,0,0,1-.808.185Z" transform="translate(-10.124 -10.384)"/><path class="j" d="M11.75,10.413a.255.255,0,0,0-.258.364c.033-.073.185-.073.219-.146.04-.112-.033-.112.04-.218Z" transform="translate(-11.121 -10.369)"/><path class="j" d="M12.24,11.007c0-.146.146-.128.146-.273,0-.073-.04-.185-.112-.185a.157.157,0,0,0-.146.146C12.094,10.839,12.24,10.861,12.24,11.007Z" transform="translate(-10.73 -10.286)"/><path class="j" d="M12.887,10.573c.218,0,.2.291.091.437,0-.106-.185-.146-.185-.218,0-.113.167-.113.095-.219Z" transform="translate(-10.33 -10.271)"/><path class="j" d="M14.355,10.413a.255.255,0,0,1,.258.364c-.033-.073-.185-.073-.218-.146-.04-.112.033-.112-.04-.218Z" transform="translate(-9.396 -10.369)"/><path class="j" d="M13.858,11.007c0-.146-.146-.128-.146-.273,0-.073.04-.185.113-.185a.157.157,0,0,1,.146.146c.033.146-.113.168-.113.313Z" transform="translate(-9.78 -10.286)"/><path class="j" d="M13.211,10.573c-.218,0-.2.291-.091.437,0-.106.185-.146.185-.218C13.305,10.679,13.138,10.679,13.211,10.573Z" transform="translate(-10.18 -10.271)"/><g transform="translate(0.702 0.116)"><path class="k" d="M11.691,10.457a.359.359,0,0,1,.219.073l-.219-.073Z" transform="translate(-11.69 -10.457)"/><path class="k" d="M11.918,10.527a.816.816,0,0,1,.258.073l-.258-.073Z" transform="translate(-11.554 -10.415)"/><path class="k" d="M12.844,10.618a.614.614,0,0,0-.258.033l.258-.033Z" transform="translate(-11.155 -10.36)"/><path class="k" d="M12.591,10.63a.292.292,0,0,0-.258,0h.258Z" transform="translate(-11.306 -10.371)"/><path class="k" d="M14.392,10.457a.375.375,0,0,0-.219.073Z" transform="translate(-10.207 -10.457)"/><path class="k" d="M14.178,10.527a.816.816,0,0,0-.258.073l.258-.073Z" transform="translate(-10.358 -10.415)"/><path class="k" d="M13.253,10.618a.614.614,0,0,1,.258.033l-.258-.033Z" transform="translate(-10.757 -10.36)"/><path class="k" d="M13.506,10.63a.292.292,0,0,1,.258,0h-.258Z" transform="translate(-10.606 -10.371)"/></g><g transform="translate(0.543 0.491)"><path class="e" d="M11.664,10.853a.037.037,0,0,1-.031-.047c.008-.028.03-.044.051-.037s.038.03.038.039-.013.035-.019.035a.013.013,0,0,0-.008,0,.038.038,0,0,1-.031.006Z" transform="translate(-11.566 -10.646)"/><path class="e" d="M13.248,10.965a.053.053,0,0,1-.024-.033.061.061,0,0,1,.043-.047.084.084,0,0,1,.038.02.038.038,0,0,1-.007.056.071.071,0,0,1-.05,0Z" transform="translate(-10.615 -10.576)"/><path class="e" d="M13.26,11.038A.036.036,0,0,1,13.232,11c0-.022,0-.026.024-.039l.017-.009.016.007c.022.01.032.021.033.035a.045.045,0,0,1-.03.041.031.031,0,0,1-.032,0Z" transform="translate(-10.61 -10.535)"/><path class="e" d="M11.892,10.691a.118.118,0,0,0-.05.022c-.03.007-.065.025-.094.006s-.066,0-.071.033a.05.05,0,0,0,.075.027c.019-.025.071-.039.076,0-.021.032-.019.074-.036.108a.148.148,0,0,1-.023.059.117.117,0,0,0-.062.013.1.1,0,0,0-.075.04.215.215,0,0,0-.042.087c0,.033.043.043.072.045s.062.02.092.029c.05.011.1.029.147.04.073.022.15.032.224.052a.116.116,0,0,0,.023.006c.031.006.047-.027.049-.052.015-.054.027-.108.042-.162.01-.021.023-.07-.019-.059a.168.168,0,0,1-.074.038c-.04,0-.017.044,0,.061a.11.11,0,0,1-.023.081c-.024.015-.054,0-.079-.009s-.08-.013-.055-.049c.009-.027.01-.056.02-.082a.373.373,0,0,0,.022-.089c-.017-.036-.045.012-.068.016s-.074.015-.043.043.006.055,0,.081-.039.044-.068.036-.069-.023-.045-.055c.006-.027.015-.053.02-.079s.02-.063.032-.1a.266.266,0,0,1,.029-.081c0-.032.022-.059.022-.091,0-.016-.009-.021-.019-.022Zm-.166.335a.016.016,0,0,1,.01,0c.012,0,.012.014,0,.025a.038.038,0,0,1-.013.009c-.022,0-.028-.005-.029-.013s0-.009.016-.016l.016-.006Z" transform="translate(-11.591 -10.691)"/><path class="e" d="M11.651,11.072c-.023-.022-.019-.037.015-.062.014-.011.023-.01.04.006s.027.038,0,.058a.036.036,0,0,1-.029.012A.033.033,0,0,1,11.651,11.072Z" transform="translate(-11.563 -10.506)"/><path class="e" d="M11.745,11.1a.04.04,0,0,1-.029-.05c.006-.02.009-.022.039-.022s.039.005.04.034,0,.02-.009.028a.05.05,0,0,1-.041.011Z" transform="translate(-11.517 -10.491)"/><path class="e" d="M14.313,11.1a.025.025,0,0,1-.013-.024c0-.019.011-.033.034-.044s.044-.012.056.009.015.039,0,.058-.012.011-.036.011-.026,0-.038-.01Z" transform="translate(-9.972 -10.491)"/><path class="e" d="M11.86,11.136a.034.034,0,0,1-.026-.037c0-.015,0-.018.012-.026a.062.062,0,0,1,.027-.011.03.03,0,0,1,.027.006c.025.018.031.036.016.053a.047.047,0,0,1-.056.016Z" transform="translate(-11.445 -10.471)"/><path class="e" d="M12.489,11.319s-.012-.007-.013-.013a.292.292,0,0,1,.011-.076.448.448,0,0,1,.009-.073c.009-.043.009-.087.019-.129a.242.242,0,0,1,.009-.065c.007-.033,0-.068.01-.1,0-.012.013-.045.026-.026a.423.423,0,0,0,.066.07c.02.012,0,.029-.012.035a.043.043,0,0,0-.022.047.573.573,0,0,0-.011.057c0,.029,0,.058-.007.087a.452.452,0,0,0-.008.087c0,.018-.008.035-.007.054a.077.077,0,0,1-.019.054.044.044,0,0,1-.049-.007Z" transform="translate(-11.062 -10.609)"/><path class="e" d="M13.395,10.854a.646.646,0,0,0-.062.056c-.027.021.022.033.029.05a.432.432,0,0,1,.009.084.211.211,0,0,1,.01.079c0,.029-.04.023-.056.039s-.032.032-.049.048a.192.192,0,0,0-.016.075c0,.021-.014.044,0,.062l.006.009c0,.007.016,0,.023,0a.2.2,0,0,0,.069-.007,1.337,1.337,0,0,1,.169-.013c.035,0,.068-.011.1-.01s.039-.023.039-.045c-.015-.03,0-.066-.014-.1a.546.546,0,0,1-.012-.1.028.028,0,0,0-.049-.016c-.016.016-.041.019-.053.039s.029.028.036.049a.242.242,0,0,1,.007.068c.005.027-.024.029-.043.032s-.06.016-.074-.014a.255.255,0,0,1-.01-.069c0-.041-.011-.082-.013-.123s-.011-.1-.014-.151c0-.021,0-.055-.033-.049Zm-.029.381h.014v.035l-.019.006-.019,0-.009-.006c-.01-.007-.008-.018.006-.032a.023.023,0,0,1,.023-.009Z" transform="translate(-10.597 -10.595)"/><path class="e" d="M12.765,10.824c-.018.006-.04.032-.058.032-.041,0-.035.042-.006.056a.2.2,0,0,1,0,.04c.006.036-.017.066-.013.1s-.014.079-.016.12-.012.085-.019.127-.032.025-.056.014c0-.016,0-.033,0-.049.01-.038-.02-.049-.05-.053a.039.039,0,0,1-.04-.052c.014-.016.048-.012.069-.014.045.009.043-.051.02-.072s-.055-.042-.066-.072a.11.11,0,0,0-.055-.1.119.119,0,0,0-.107.082c-.021.006-.042.012-.062.02s-.079.065-.035.087c.025.007.1.024.068.059a.072.072,0,0,1-.088.025c-.033,0-.071-.016-.069-.055a.4.4,0,0,0-.022-.1c-.007-.039-.051-.03-.053.006a.062.062,0,0,0-.006.094.13.13,0,0,1-.014.1c-.009.04-.053.042-.085.055-.016.006-.075,0-.053.03a.207.207,0,0,0,.112.014.124.124,0,0,0,.089-.063c.026-.026.069-.012.1-.013s.072.025.107.009c.01-.026.056-.069.071-.025a.056.056,0,0,0,.069.056c.04,0,.025.028.025.052a.1.1,0,0,0,.066.084.086.086,0,0,0,.037,0c.035-.011.072-.026.082-.065a.877.877,0,0,0,.025-.1,1.239,1.239,0,0,0,.02-.157c.013-.048.009-.1.019-.147s.011-.072.014-.108c0-.019-.013-.022-.023-.019Zm-.313.192c.007,0,.011.009.012.025a.034.034,0,0,0,.02.033c.008,0,.008.011,0,.017a.058.058,0,0,1-.032.006.074.074,0,0,1-.058-.022l-.009-.009.013-.009.026-.023c.013-.013.022-.02.029-.019Z" transform="translate(-11.379 -10.613)"/><path class="e" d="M14.465,10.716a.386.386,0,0,0-.076.012c-.048,0-.072.047-.026.072.028.071.071-.015.115-.009.066.013.072.085.082.138a.7.7,0,0,0,.035.156c.044.049-.033.08-.066.042s-.089-.068-.123-.026c-.042.018-.043.073-.078.089-.056.017-.063-.052-.092-.081s-.079-.041-.121-.055c-.02-.04-.009-.108-.05-.136-.034.014-.1.079-.045.108s-.023.065-.046.1a.237.237,0,0,0-.045.137c-.058.032-.069-.036-.076-.079s-.048-.036-.078-.017-.066.06-.1.092a.865.865,0,0,0,0,.094c.01.037.055.02.084.017.045-.019.064.029.027.056s-.1.015-.1.065a.4.4,0,0,0,.076,0,.136.136,0,0,0,.11-.105c.007-.049.077-.04.115-.05s.106-.017.117.043c.033.034.1.073.14.026a.111.111,0,0,0,.052-.1c-.007-.036.059-.038.075-.017.024.04.1.028.136.006s.047-.079.1-.079c.082-.025.168-.039.248-.069.065-.014-.01-.055-.026-.079-.05-.025-.093.076-.149.026-.043-.033-.04-.1-.056-.144a.344.344,0,0,0-.053-.185.143.143,0,0,0-.117-.039Zm-.314.437a.05.05,0,0,1,.023.009.061.061,0,0,1,.035.045c0,.01,0,.01-.017.017a.1.1,0,0,1-.023.009c-.008,0-.029-.016-.029-.023a.107.107,0,0,0-.006-.022c-.005-.015,0-.015,0-.025S14.145,11.153,14.151,11.153Zm.3.016a.032.032,0,0,1,.035.017c.008.015,0,.027-.019.036l-.02.007-.017-.01c-.012-.008-.014-.012-.014-.022S14.432,11.17,14.452,11.169Zm-.413,0c.005,0,.01,0,.016.007a.036.036,0,0,1,.013.027.1.1,0,0,1,0,.029c0,.01,0,.01-.026.01s-.032,0-.032-.03,0-.022.01-.032A.036.036,0,0,1,14.04,11.173Zm-.254.066a.026.026,0,0,1,.02.02c0,.015,0,.021-.012.027a.062.062,0,0,1-.04,0,.028.028,0,0,1-.009-.009c0-.006,0-.008,0-.012s.006-.006.006-.007a.039.039,0,0,1,.007-.013.025.025,0,0,1,.026-.01Zm.427.055a.03.03,0,0,1,.02.007.016.016,0,0,1,0,.026.1.1,0,0,1-.052,0,.009.009,0,0,1-.007-.01c0-.007,0-.011.013-.016A.068.068,0,0,1,14.213,11.295Z" transform="translate(-10.344 -10.677)"/><path class="e" d="M13.519,11.356s-.011-.005,0-.01a.065.065,0,0,1,.038-.024.159.159,0,0,0,.063-.052c0-.015.02-.024.019-.04a.265.265,0,0,0,0-.066.081.081,0,0,0-.038-.045c-.012-.009-.031-.012-.035-.028s.012-.028.017-.042.019-.04.03-.059.03,0,.037.012a.149.149,0,0,1,.021.041.127.127,0,0,1,.031.054.1.1,0,0,1,.017.045c0,.019.011.036.01.056a.2.2,0,0,1-.009.077c-.006.014-.019.022-.028.034a.16.16,0,0,1-.05.034c-.013,0-.021.02-.038.016a.4.4,0,0,1-.071,0s-.007,0-.006,0Z" transform="translate(-10.443 -10.516)"/><path class="e" d="M13.323,11.258c-.011-.012-.014-.016-.014-.028s0-.016.013-.027.03-.021.065,0,.045.018.048.006.022-.022.04-.022a.038.038,0,0,1,.027.009c.012.009.012.01.012.031s0,.022-.013.034a.029.029,0,0,1-.031.01.035.035,0,0,1-.036-.027c0-.012-.006-.014-.009-.006a.018.018,0,0,1-.011.007.1.1,0,0,0-.037.023.035.035,0,0,1-.024.006.031.031,0,0,1-.031-.014Z" transform="translate(-10.564 -10.397)"/><path class="e" d="M12.889,10.973a.072.072,0,0,0-.068.056c.007.035.036.069.017.105.013.047-.035.064-.068.037a.667.667,0,0,0-.059-.134c-.037-.011-.053.049-.079.069.013.035.051.066.055.11a.111.111,0,0,1-.053.111c-.032.03-.075.019-.114.026-.047.028.035.038.056.039a.159.159,0,0,0,.134-.037c.035-.017.033-.078.075-.085.073,0,.146.011.219.013.039.009.1,0,.127.025a.123.123,0,0,0,.085.1c.023.006.047-.022.071-.027.045-.014.031-.069.058-.091.076,0,.153,0,.229,0,.015,0,.019-.02.029-.029,0-.029,0-.059-.007-.088s0-.085-.025-.117c-.038-.01-.071.025-.11.027a.129.129,0,0,0-.081.107c-.025.041-.066-.007-.052-.042a.227.227,0,0,0,0-.046c-.023-.028-.064-.019-.1-.023s-.093-.008-.14-.007a.666.666,0,0,1-.124-.007c-.048,0-.041-.048-.049-.081a.047.047,0,0,0-.029-.009Zm.092.17a.438.438,0,0,1,.046,0c.02,0,.041-.007.061,0,.045.008.09.006.136.01a.045.045,0,0,1,.029.016c0,.032,0,.064,0,.1,0,.012,0,.028-.007.036a.032.032,0,0,1-.012.006.05.05,0,0,1-.032-.023.319.319,0,0,1,0-.049s0-.011,0-.014a.058.058,0,0,0-.033-.012l-.117-.006a.494.494,0,0,1-.1-.006c-.012,0-.029,0-.036-.016s0-.028.016-.033a.105.105,0,0,1,.046-.009Zm.521.012c.007,0,.01,0,.013.016l.006.023c0,.005,0,.007-.009.01-.023.009-.045.008-.053,0s0-.02.007-.026a.073.073,0,0,1,.036-.02Z" transform="translate(-11.044 -10.523)"/></g></g><path class="l" d="M13.515,10.671a3.511,3.511,0,0,0,1.377-2.856.587.587,0,0,1-.117.012,2.235,2.235,0,0,1-1.246-.41,2.563,2.563,0,0,1-1.273.41.572.572,0,0,1-.117-.012,3.506,3.506,0,0,0,1.375,2.856Z" transform="translate(-10.318 -5.057)"/><path class="m" d="M14.726,7.88h-.039a2.461,2.461,0,0,1-1.208-.367,2.785,2.785,0,0,1-1.227.367.217.217,0,0,1-.039,0c0,.064,0,.131.007.191a3.374,3.374,0,0,0,.115.672,3.28,3.28,0,0,0,1.134,1.715A3.285,3.285,0,0,0,14.6,8.739a3.377,3.377,0,0,0,.115-.672c0-.059.007-.124.007-.187Z" transform="translate(-10.272 -4.999)"/><path class="e" d="M12.98,7.656a2.862,2.862,0,0,1-.727.14.215.215,0,0,1-.039,0c0,.064,0,.131.007.192a3.362,3.362,0,0,0,.114.671,3.278,3.278,0,0,0,.645,1.236V7.656Z" transform="translate(-10.271 -4.914)"/><path class="e" d="M13.289,7.654V9.927a3.282,3.282,0,0,0,.674-1.272,3.367,3.367,0,0,0,.114-.671c0-.059.008-.125.007-.188h-.039a2.821,2.821,0,0,1-.756-.144Z" transform="translate(-9.629 -4.915)"/><g transform="translate(2.283)"><path class="n" d="M13.911,8.131c.031,0-.042-.165-.042-.165.081.083.389.1.389.1-.185-.081-.369-.7-.347-1.187s-.071-.686-.143-.758a1.163,1.163,0,0,0-.584-.185c-.11-.005-.092.083-.092.083a.751.751,0,0,0-.5-.011c-.087.058-.1.347-.042.3.154-.123.288-.011.38.123a1.23,1.23,0,0,1-.042.84,2.824,2.824,0,0,1-.46.818,1.082,1.082,0,0,0,.44-.163l-.062.255a1.572,1.572,0,0,0,.347-.235l.185.194a1.884,1.884,0,0,1,.185-.194.668.668,0,0,0,.389.185Z" transform="translate(-12.427 -5.94)"/><path class="o" d="M13,6.574a2.74,2.74,0,0,1-.3.974" transform="translate(-12.262 -5.56)"/><path class="o" d="M13.055,6.562a3.77,3.77,0,0,1-.174,1.013" transform="translate(-12.155 -5.568)"/><path class="o" d="M13.08,6.581a7.379,7.379,0,0,0,.051.983" transform="translate(-12.036 -5.556)"/><path class="o" d="M13.195,6.607a2.73,2.73,0,0,0,.215.961" transform="translate(-11.968 -5.541)"/><path class="p" d="M12.932,6.511a.366.366,0,0,0-.049-.154c-.092-.134-.226-.246-.38-.123,0,0,.052-.163.165-.168.087-.005.284.065.458.362,0,0-.128-.029-.159,0-.058.051-.034.085-.034.085Z" transform="translate(-12.381 -5.864)"/><path class="p" d="M12.494,6.108a.178.178,0,0,1,.058-.1.751.751,0,0,1,.5.011s-.018-.089.092-.083a1.163,1.163,0,0,1,.584.185.364.364,0,0,1,.069.11h0c-.045-.063-.174-.06-.2-.056a.828.828,0,0,0-.145.02.292.292,0,0,0-.1.036c-.02.016-.036.076-.067.076-.049,0-.045-.013-.058-.027s-.025-.049-.042-.047c-.051.009-.132-.031-.235-.112a.315.315,0,0,0-.277-.092.213.213,0,0,0-.174.085l0-.009Z" transform="translate(-12.389 -5.94)"/><circle class="a" cx="0.054" cy="0.054" r="0.054" transform="translate(0.807 0.18)"/></g></g></g></g></svg>