<svg xmlns="http://www.w3.org/2000/svg" xmlns:xlink="http://www.w3.org/1999/xlink" width="35" height="35" viewBox="0 0 35 35"><defs><clipPath id="a"><circle cx="17.5" cy="17.5" r="17.5" transform="translate(174 5)" fill="#fff"/></clipPath></defs><g transform="translate(-174 -5)" clip-path="url(#a)"><g transform="translate(165.25 5)"><path d="M0,0H52.5V35H0Z" fill="#006c35"/><g transform="translate(13.041 8.266)"><path d="M245.459,148.554c.09.048.325-.242.317-.606.026-.187-.067-.876-.3-.993a.222.222,0,0,0-.085-.007.232.232,0,0,0-.186.317c-.034.109.167.491.219.693.047.144-.06.552.037.6ZM226.894,142.7c.288.137.828.079.8-.385,0-.041-.009-.179-.013-.217a.124.124,0,0,0-.136-.085h0a.158.158,0,0,0-.12.122c-.011.046.02.123-.022.147-.024.024-.115.008-.112-.12a.214.214,0,0,0-.048-.109.1.1,0,0,0-.063-.015c-.04,0-.039.012-.061.046a.378.378,0,0,0-.022.107c-.005.046-.023.061-.057.068s-.029,0-.059-.015-.039-.028-.039-.061a.358.358,0,0,0-.02-.114.122.122,0,0,0-.07-.039c-.157,0-.169.181-.16.249C226.686,142.291,226.68,142.61,226.894,142.7Zm-2.308-.018c.044.11-.044.464.048.5s.2-.245.245-.505c.025-.143.006-.63-.326-.731a.274.274,0,0,0-.052-.007c-.127,0-.267.075-.212.228C224.257,142.247,224.538,142.528,224.587,142.682Zm10.167.131a2.321,2.321,0,0,0,.177-.827c-.026-.144-.088-.214-.16-.208s-.15.089-.214.249a4.06,4.06,0,0,0-.112.759c-.044.19.2.27.308.026Zm-2.054-.125c.082.117.162.105.326.02a.346.346,0,0,0,.158-.23c.039-.195-.205.092-.236-.125-.055-.2.1-.284.249-.479,0-.092.005-.167-.055-.168a.267.267,0,0,0-.125.048.926.926,0,0,0-.389.654c-.008.172-.04.171.072.28Zm-8.4,3.077c.84.081.376-1.421.68-1.693.058-.134.164-.137.173.033v1.275a.613.613,0,0,0,.477.623c.22-.017.366-.011.453.2l.105,2.207s.509.146.534-1.24a12.96,12.96,0,0,1-.053-1.656c0-.156.2-.163.341-.087.22.155.317.346.658.269.519-.143.832-.4.84-.794a3.46,3.46,0,0,0-.238-1.138c.023-.069-.1-.248-.077-.317.093.146.234.134.267,0a1.137,1.137,0,0,0-.448-.691c-.184-.162-.453-.128-.551.21a1.838,1.838,0,0,0,.424,1.227,1.2,1.2,0,0,1,.107.613.327.327,0,0,1-.427-.083s-.413-.31-.413-.378a1.482,1.482,0,0,0-.037-.978,1.319,1.319,0,0,0-.273-.538c-.1-.11-.244-.11-.311,0a1.853,1.853,0,0,0,.035,1.3c.1.28.242.455.173.455-.057.158-.175.122-.26-.061a4.548,4.548,0,0,1-.147-1.194c-.037-.315-.077-.987-.284-1.157a.2.2,0,0,0-.184-.094.259.259,0,0,0-.195.164,5.641,5.641,0,0,0,.02.912,9.965,9.965,0,0,1,.256,1.466c.019.692-.4.3-.381-.044a3.13,3.13,0,0,0-.015-1.326c-.068-.178-.147-.222-.313-.193-.132-.008-.471.362-.567.976a5.779,5.779,0,0,0-.114.6c-.046.317-.256.541-.4-.044-.126-.425-.2-1.472-.416-1.227-.061.818-.133,2.256.562,2.4Zm5.414-1.387h0l0,0h0l0,0a3.065,3.065,0,0,0,.8,0l0,0h0s0,0,0,0a11.332,11.332,0,0,0,1.33-1.341c-.057-.049-.109-.085-.166-.133s-.055-.1,0-.158a.436.436,0,0,0,.044-.665.709.709,0,0,0-.328-.066.643.643,0,0,0-.263.072.5.5,0,0,0-.085.658c.146.069.292.216.195.3-.414.442-1.49,1.18-1.544,1.315l0,0a.026.026,0,0,0,0,0v0l0,0,0,0Zm1.63-1.968.013,0a.217.217,0,0,1,.188.142c.042.093.021.182-.048.2s-.159-.045-.2-.138-.021-.184.048-.2Zm1.519,2.705c.336.139.549-.5.687-1.2.094-.2.166-.219.214-.118-.012.931.067,1.139.306,1.422a.773.773,0,0,0,1.011.018l.416-.416a.25.25,0,0,1,.346-.017c.127.115.111.315.383.453a.841.841,0,0,0,.831-.175c.153-.262.19-.351.26-.451.109-.145.3-.081.3-.035-.017.081-.127.161-.053.306.13.1.16.035.236.013.271-.13.475-.718.475-.718.012-.219-.113-.2-.193-.157-.1.064-.11.085-.214.149-.133.02-.389.107-.516-.09a7.78,7.78,0,0,1-.23-.805c0-.017-.173-.375-.013-.4.081.015.255.06.282-.085.085-.142-.183-.543-.365-.746a.393.393,0,0,0-.588-.018c-.148.136-.126.289-.155.433a.677.677,0,0,0,.138.591,1.8,1.8,0,0,1,.328,1.194.48.48,0,0,1-.431.219c-.114-.025-.3-.075-.4-.807-.075-.555.019-1.332-.217-1.7-.053-.137-.1-.271-.175-.26-.046.006-.1.064-.179.206a.869.869,0,0,0-.122.831,1.251,1.251,0,0,1-.114,1.647.409.409,0,0,1-.527.072.565.565,0,0,1-.315-.444,6.091,6.091,0,0,0-.048-1.431.259.259,0,0,0-.433-.087,3.266,3.266,0,0,0-.785,1.612c-.121.391-.251.278-.341.12-.221-.207-.236-1.826-.5-1.56-.427,1.221.245,2.558.711,2.428Zm-1.76-.87a.593.593,0,0,0-.195.785.385.385,0,0,0,.413.133c.25.031.4-.468.4-.468s.008-.14-.289.125c-.125.023-.142-.022-.173-.092a.621.621,0,0,1,.039-.392c.028-.078,0-.127-.059-.133A.233.233,0,0,0,231.108,144.245Zm16.456,6.233c-.055-.062-.178-.025-.26-.035-.039,0-.169-.019-.107-.133a.772.772,0,0,0,.105-.2c.039-.086,0-.143-.136-.19a.748.748,0,0,0-.173-.015c-.052,0-.107.009-.186.015s-.116.056-.131.16c.006.158.1.15.2.212a.17.17,0,0,1,0,.258l-.254.219c-.044.075-.072.191.063.227.249.07.827-.3.827-.313a.183.183,0,0,0,.055-.2Zm1.792-6.59a2.653,2.653,0,0,1-.057-.5c.038-.1.231.01.3-.1.1-.1-.5-.871-.709-1.2-.042-.082-.068-.15-.105-.147s-.064.05-.118.164a1.517,1.517,0,0,0-.122.93,51.1,51.1,0,0,1,.593,6.035,1.95,1.95,0,0,1-.118.5,3.979,3.979,0,0,1-.58.676c-.192.143-.6.279-.733.385-.423.245-.426.526-.083.536a2.108,2.108,0,0,0,1.767-.842,2.81,2.81,0,0,0,.287-1.092,25.47,25.47,0,0,0-.322-5.34Zm-25.518,3.877,2.188-1.05c-.12-.179-.007-.34-.457-.352A2.222,2.222,0,0,0,223.838,147.765Zm.39,2.266c-.182.369-.257.117-.273-.09a4.738,4.738,0,0,1,.052-1.037c.023-.146.022-.2,0-.2s-.052.053-.1.111a2.17,2.17,0,0,0-.221,1.925.48.48,0,0,0,.466.155.855.855,0,0,0,.311-.827c-.086-.135-.155-.156-.241-.042Zm5.157-.985a6.432,6.432,0,0,0,.094-1.842l0,0,0,0,0,0,.013,0c.37.4.888.051,1-.087a.166.166,0,0,1,.256-.024.6.6,0,0,0,.9-.256,8.081,8.081,0,0,0,.125-1.107,1.123,1.123,0,0,0-.4.166.106.106,0,0,0-.028.053l-.048.317a.078.078,0,0,1-.009.024.1.1,0,0,1-.035.033c-.066.036-.182.016-.188-.081-.089-.406-.457-.459-.68.171-.15.122-.424.146-.453-.037.036-.422-.134-.479-.475-.28l-.328-2.472c.142,0,.273.1.4-.063a4.682,4.682,0,0,0-.606-1.411l0,0a.23.23,0,0,0-.024-.024l-.011-.009-.011-.007-.022-.009a.124.124,0,0,0-.046,0h0c-.042.006-.088.029-.142.042a.417.417,0,0,0-.293.512l.56,3.546c.032.15-.094.348-.256.328-.276-.187-.344-.566-.816-.549a.918.918,0,0,0-.779.733,1.779,1.779,0,0,0,0,.84.683.683,0,0,0,.779.193c.207-.085.377-.289.451-.241h0s0,0,0,0c.045.079,0,.746-.976,1.262-.6.268-1.072.332-1.328-.155-.158-.3.012-1.464-.378-1.2-1.153,2.973,2.7,3.388,3.133.123.028-.092.113-.185.173-.162.026.011.05.047.059.114-.089,2.956-2.982,3.159-3.474,2.229a2.865,2.865,0,0,1-.171-1,.5.5,0,0,0-.118-.319c-.117-.087-.274.142-.308.54a3.582,3.582,0,0,0-.035.718c.154,2.335,3.877,1.332,4.482-.6Zm-1.438-2.021s0,0,0,0l0,0c-.029.037-.131.022-.2.022a.2.2,0,0,1-.184-.09c-.025-.079.051-.157.085-.217l0,0a.11.11,0,0,1,.015-.017.229.229,0,0,1,.12-.053l.028,0a.187.187,0,0,1,.177.129.225.225,0,0,1-.039.223Zm15.3,10.465h0ZM240.256,144.8c.288.137.83.077.807-.387,0-.041-.011-.179-.015-.217a.124.124,0,0,0-.136-.085.161.161,0,0,0-.12.125c-.011.046.022.121-.02.144-.024.024-.118.01-.114-.118a.222.222,0,0,0-.048-.112.1.1,0,0,0-.063-.015c-.04,0-.039.012-.061.046a.4.4,0,0,0-.022.107c-.005.046-.021.061-.055.068s-.031,0-.061-.015-.039-.028-.039-.061a.359.359,0,0,0-.02-.114.123.123,0,0,0-.07-.037c-.157,0-.167.179-.158.247C240.05,144.384,240.042,144.707,240.256,144.8Zm4.642,1.2c0-.271.031-.631.046-.855.006-.085.026-.178.107-.2s.222.081.223-.007a1.161,1.161,0,0,0-.147-.547.275.275,0,0,0-.217-.118.323.323,0,0,0-.33.278c0,.114.051.177.042.28-.015.059-.076.1-.221.028.023-.021-.094-.186-.094-.186-.113-.069-.265,0-.363.068a.553.553,0,0,0-.033.44c.163.3.721.813.987.818Zm-1.794,3.74c.2,0,.432-.459.532-.914a7.751,7.751,0,0,0-.052-1.378c-.016-.369-.418-3.361-.5-3.64-.1-.528.39-.07.337-.376-.169-.387-.59-.951-.722-1.286-.05-.09-.056-.173-.1-.166-.024,0-.06.041-.127.129a2.885,2.885,0,0,0-.16,1.312,28.546,28.546,0,0,1,.788,6.32Zm-1.5-.451a5.494,5.494,0,0,1-1.857,1.354c-.078.088.194.462.547.462a2.073,2.073,0,0,0,1.588-1.271,2.265,2.265,0,0,0,.361-.976,21.278,21.278,0,0,0-.4-4.944.818.818,0,0,1,.017-.346c.038-.045.168,0,.236-.112.1-.1-.269-.956-.479-1.284-.042-.082-.068-.148-.1-.144s-.064.047-.118.162a1.843,1.843,0,0,0-.208.93c.281,1.947.367,3.651.551,5.6a.77.77,0,0,1-.138.571Zm1.21-.8C242.817,148.454,242.815,148.456,242.81,148.484ZM240.451,143c.1.288-.078.562.028.6s.235-.3.287-.613a.952.952,0,0,0-.381-.886.3.3,0,0,0-.061-.007c-.148,0-.311.089-.247.273-.037.1.317.443.374.63Zm5.2,2.986a.048.048,0,0,0-.024,0l-1.367.982c-.132.118-.066.531,0,.483a5.31,5.31,0,0,0,1.413-.98c.059,0,.087-.468-.022-.488Zm-.939-2.656q.609.75,1.19,1.523c.084,1.086.107,2.082.193,3.17-.012.465-.155,1.083-.291,1.142,0,0-.207.119-.346-.013a4.151,4.151,0,0,1-.5-.672.307.307,0,0,0-.49,0,6.759,6.759,0,0,0-.862,1.625c-.071.112-.27.208-.492-.009a2.219,2.219,0,0,1-.3-1.607l-.006.023a1.751,1.751,0,0,0-.166,1.7,1.337,1.337,0,0,0,.621.707.435.435,0,0,0,.647-.07c.3-.306.3-1.088.438-1.242a.259.259,0,0,1,.459-.109,1.13,1.13,0,0,0,.42.363.705.705,0,0,0,.927.066,1.075,1.075,0,0,0,.494-.6,21.192,21.192,0,0,0,.039-3.4l.617.895a22.163,22.163,0,0,1,.1,2.787c-.021.179.623-.533.619-.871v-.812c.313.5.615,1.007.9,1.52.177-.093.116-1.1,0-1.236-.3-.5-.683-1.046-.98-1.466-.059-.531-.139-1.156-.175-1.347-.057-.3-.113-.748-.2-1.1a3.75,3.75,0,0,1-.072-.623c.035-.1.167,0,.232-.112a3.973,3.973,0,0,0-.558-1.553c-.079-.144-.223-.094-.4.14-.165.154-.1.506-.042.84.163.852.309,1.72.424,2.586l-.731-1.072-.033-.168c0-.015-.035-.7-.066-.86-.006-.066-.021-.085.048-.077a.4.4,0,0,0,.129.085c.074.014.139-.112.094-.227l-.687-1.269a.191.191,0,0,0-.094-.061c-.036-.006-.074.012-.118.077a.5.5,0,0,0-.171.376c.02.3.074.608.094.908l.022.12a1.146,1.146,0,0,0-.077-.09c-.585-.615.268-.1-.112-.575a4.558,4.558,0,0,0-.691-.678c-.138-.089-.221-.26-.267.031a5.822,5.822,0,0,0-.02.766,1.03,1.03,0,0,0,.23.477Zm3.393.493c.047.144-.071.609.026.652s.216-.321.262-.663c.026-.187-.113-.843-.348-.96a.244.244,0,0,0-.057-.009.218.218,0,0,0-.223.3C247.73,143.245,248.051,143.616,248.1,143.818Zm-10.2,6.729a.194.194,0,0,0,.245.031,4.629,4.629,0,0,1,.844-.3c.1,0,.1-.277-.066-.287a.961.961,0,0,0-.619.188c-.13.03-.153-.049-.182-.12-.033-.176.074-.3.053-.433a.306.306,0,0,0-.158-.063.189.189,0,0,0-.1.02,1.761,1.761,0,0,0-.387.33c-.057.043-.05.081-.033.155.044.1.122.07.21.022.117-.016.174.061.164.2a.259.259,0,0,0,.024.252Zm1.32-2.788,0,0,0,0,0,0v0a.074.074,0,0,0,0-.022l-.127-.074-2.5-.011a.266.266,0,0,1-.068-.035l0,0,0,0,0,0,0,0,0,0v0l0,0v-.017l0,0,0,0a.184.184,0,0,1,.079-.046c.6-.081,1.658-.255,1.728-1.275a.838.838,0,1,0-1.645.035c-.023.137.047.407-.094.438-.919.084-1.922.659-1.956,1.072h0l0,0,0,0h0l-.007,0H234.6l-.009,0a.24.24,0,0,1-.125-.254,4.931,4.931,0,0,0-.63-2.139c-.13-.129-.187-.182-.223-.188H233.6l-.011.007-.007,0a1.408,1.408,0,0,1-.136.122c-.125.142-.148.242-.14.527.007.03.238.671.433,1.122a3.481,3.481,0,0,1,.164,1.512,3.723,3.723,0,0,1-1.527,1.6.8.8,0,0,1-.639,0l0,0a.4.4,0,0,1-.168-.363v0l0,0a3.6,3.6,0,0,0,1.533-1.586,1.623,1.623,0,0,0,.042-1.142,1.086,1.086,0,0,0-.258-.529l0,0c.086-.041.309.123.343.02a1.663,1.663,0,0,0-.44-.812.372.372,0,0,0-.54-.033c-.186.1-.225.474-.136.8.1.244.367.287.558.779v0c0,.031.065.367-.031.5a6.027,6.027,0,0,1-1.151,1.081l-.007,0,0,0,0,0,0,0h0l0,0v0l0,0c0-.02,0-.07,0-.151-.007-.148.055-.483.05-.54v0l0,0v0h0c-.331.214-.44.869-.5,1.063a15.684,15.684,0,0,0-2.338,1.6c-.286.446,1.967-.512,2.229-.628l.007.007c.05.055.054.246.2.418a1.191,1.191,0,0,0,1.216.392,3.859,3.859,0,0,0,1.757-1.461c.068-.1.175-.177.273-.1a2.752,2.752,0,0,0,2.492,1.308c.282-.343.147-.512.033-.584-.035-.023-.607-.246-.7-.468-.056-.206.08-.39.352-.527a12.247,12.247,0,0,0,2.3-.44,2.024,2.024,0,0,1,.254-.787.371.371,0,0,1,.129-.14Zm-2.062-1.57a.072.072,0,0,1,.009-.022l0-.009,0,0,.011-.011a.126.126,0,0,1,.063-.024.341.341,0,0,1,.195.052c.1.058.161.145.153.208,0,0,0,0,0,.007s0,0,0,.007l0,.007,0,0,0,0a.084.084,0,0,1-.013.015.244.244,0,0,1-.262-.022.262.262,0,0,1-.153-.208s0,0,0-.007Zm-1,2.5c-.268.092-.526.164-.527.551a.534.534,0,0,1,0,.339l-.009.011,0,0,0,0,0,0,0,0,0,0-.013.007-.013,0c-.064.009-.156-.051-.225-.088a1.418,1.418,0,0,1-.7-1.024.26.26,0,0,1,.263-.271h.028a7.751,7.751,0,0,0,1.046.12c.29.018.434.246.162.341Zm-5.867-.853c-.007.111.307.246.326.5.045.106-.067.445.026.477s.2-.235.249-.486c.025-.138-.108-.619-.333-.7a.388.388,0,0,0-.107-.009c-.109.008-.206.066-.162.219Zm5.039-1.567c.288.137.974.056.807-.387,0-.041-.011-.179-.015-.217a.124.124,0,0,0-.136-.085.159.159,0,0,0-.12.123c-.011.046.022.123-.02.147-.024.024-.118.01-.114-.118a.222.222,0,0,0-.048-.112.089.089,0,0,0-.061-.015c-.04,0-.041.012-.063.046a.4.4,0,0,0-.022.107c0,.046-.021.061-.055.068s-.029,0-.059-.015-.042-.027-.042-.061a.362.362,0,0,0-.017-.114.129.129,0,0,0-.072-.037c-.157,0-.167.179-.157.247-.012.013-.02.335.195.424ZM238.022,149.568Zm-.249-6.464c.483.649.947,1.3,1.4,1.975.07.5.122.991.155,1.479a29.781,29.781,0,0,1,.028,3.528c.2.008.522-.324.634-.809a23.568,23.568,0,0,0-.033-2.439c0-.165-.015-.361-.026-.567q.821,1.341,1.525,2.748c.181-.086.141-1.106.035-1.249-.4-.856-.947-1.7-1.122-2.026-.063-.117-.279-.445-.534-.823-.047-.539-.1-1-.131-1.133-.082-.57.234.064.19-.267a3.645,3.645,0,0,0-.787-1.477c-.12-.169-.117-.2-.3.042a1.087,1.087,0,0,0-.077.654q-.092-.133-.195-.258l-.606-.514a.652.652,0,0,0-.365-.14c-.073.007-.131.05-.153.158a1.659,1.659,0,0,0,.028.6,2.133,2.133,0,0,0,.339.514Zm1.022-.038c.012.055.025.11.033.166.028.121.051.242.077.361-.106-.146-.194-.264-.232-.306-.24-.286.005-.187.122-.221Z" transform="translate(-223.553 -141.706)" fill="#fff"/><path d="M288.489,412.3l0,0a.394.394,0,0,1,.136.726l12.548-.074c.807,0,3.359-.1,3.408-.1a2.585,2.585,0,0,1-2.378.98l-13.53-.024a.9.9,0,0,1-.16.941l-.011.006-.017.007h-.007c-.17.04-.245-.083-.3-.173a17.588,17.588,0,0,1-1.969,0l0,0c-.1.141-.191.275-.374.252-.32-.069-.572-.1-.58-.753,0,0,.033-1.106.759-1.037.172.026.654.074.654.074.558-.066.967-.073,1.595-.1-.058-.073-.16-.371-.035-.479a.2.2,0,0,1,.149-.037h.007l0,0,.007,0,.011-.011,0,0c.032-.046.049-.159.07-.188l0,0,0,0,0,0h0Zm-.3,1.582h0c-.639.031-1.24.006-1.879.037a.231.231,0,0,0,.015.319l.011,0h.017l.536-.015a.119.119,0,0,1,0-.031c.049-.146.406-.136.49-.022l0,.007a.135.135,0,0,1,.009.02.1.1,0,0,1,0,.015.1.1,0,0,1,0,.018,5.029,5.029,0,0,0,.814-.02c.082-.1.073-.288-.024-.333Z" transform="translate(-281.655 -396.515)" fill="#fff" fill-rule="evenodd"/></g></g></g></svg>